Katy Ellen French (31 October 1983 ΓÇô 6 December 2007) was an Irish socialite, model, writer, television personality and charity worker. According to the BBC, "in the space of less than two years, she had become one of Ireland's best-known models and socialites." She collapsed at a friend's house on 2 December 2007 and died on 6 December.A post mortem examination determined that she had suffered brain damage, and that traces of cocaine were found in her body.

File Info:
Complete name                            : Scannal 2013xE02 Katie French [RTE Ireland] HQ PDTV x264 AC3 DeViL303.mkv
Format                                   : Matroska
Format version                           : Version 1
File size                                : 270 MiB
Duration                                 : 25mn 13s
Overall bit rate mode                    : Variable
Overall bit rate                         : 1 497 Kbps
Encoded date                             : UTC 2013-02-25 23:50:46
Writing application                      : mkvmerge v2.5.3 ('Boogie') built on Mar  7 2009 15:00:41
Writing library                          : libebml v0.7.7 + libmatroska v0.8.1

Video
ID                                       : 1
Format                                   : AVC
Format/Info                              : Advanced Video Codec
Format profile                           : High@L3.0
Format settings, CABAC                   : Yes
Format settings, ReFrames                : 3 frames
Codec ID                                 : V_MPEG4/ISO/AVC
Duration                                 : 25mn 13s
Bit rate mode                            : Variable
Bit rate                                 : 1 303 Kbps
Maximum bit rate                         : 12.0 Mbps
Width                                    : 720 pixels
Height                                   : 576 pixels
Display aspect ratio                     : 16:9
Original display aspect ratio            : 5:4
Frame rate mode                          : Constant
Frame rate                               : 25.000 fps
Standard                                 : PAL
Color space                              : YUV
Chroma subsampling                       : 4:2:0
Bit depth                                : 8 bits
Scan type                                : Progressive
Bits/(Pixel*Frame)                       : 0.126
Stream size                              : 230 MiB (85%)
Writing library                          : x264 core 93 r1542M 5b86182
Encoding settings                        : cabac=1 / ref=3 / deblock=1:-1:-1 /
Default                                  : Yes
Forced                                   : No

Audio
ID                                       : 2
Format                                   : AC-3
Format/Info                              : Audio Coding 3
Mode extension                           : CM (complete main)
Format settings, Endianness              : Big
Codec ID                                 : A_AC3
Duration                                 : 25mn 13s
Bit rate mode                            : Constant
Bit rate                                 : 192 Kbps
Channel(s)                               : 2 channels
Channel positions                        : Front: L R
Sampling rate                            : 48.0 KHz
Bit depth                                : 16 bits
Compression mode                         : Lossy
Stream size                              : 34.6 MiB (13%)
Default                                  : Yes
Forced                                   : No
